<svg xmlns="http://www.w3.org/2000/svg" width="16" height="16" viewBox="0 0 16 16"><g><g><path fill="#17dee9" d="M12.782 14.37c-.328.335-.675.644-.985.99-.452.507-1.022.669-1.665.63-.942-.048-1.815-.364-2.65-.773a14.389 14.389 0 0 1-4.788-3.743C1.71 10.302.898 9.027.36 7.587c-.26-.7-.446-1.413-.39-2.167.037-.464.21-.86.55-1.188.372-.354.719-.718 1.084-1.078.477-.47 1.072-.464 1.548 0 .298.29.583.583.874.872.284.286.57.564.848.849.495.5.495 1.083 0 1.585-.353.358-.706.718-1.071 1.064-.093.093-.106.168-.056.285.235.57.582 1.077.966 1.548.774.953 1.653 1.8 2.706 2.457.223.142.47.24.706.37.118.07.204.044.297-.055.353-.366.719-.723 1.078-1.083.477-.47 1.071-.47 1.542 0 .582.576 1.158 1.152 1.734 1.734.495.508.495 1.101.006 1.59zM7.289 4.752l.186-1.325a5.875 5.875 0 0 1 3.362 1.678 5.849 5.849 0 0 1 1.648 3.174l-1.32.23A4.547 4.547 0 0 0 9.89 6.05a4.536 4.536 0 0 0-2.601-1.299zm7.35 3.527a8.444 8.444 0 0 0-2.359-4.554 8.419 8.419 0 0 0-4.818-2.402l.186-1.325a9.715 9.715 0 0 1 5.574 2.778 9.793 9.793 0 0 1 2.737 5.273z"/></g></g></svg>